 <svg viewBox="0 0 45 45" xmlns="http://www.w3.org/2000/svg" width="28" height="28">
      <g fill="none" fillRule="evenodd">
        <path
          d="M27.368 45H2.632A2.632 2.632 0 0 1 0 42.368V17.632A2.632 2.632 0 0 1 2.632 15h24.736A2.632 2.632 0 0 1 30 17.632v24.736A2.632 2.632 0 0 1 27.368 45"
          fill="#16214D"
        />
        <path
          d="M34.868 37.5H10.132A2.632 2.632 0 0 1 7.5 34.868V10.132A2.632 2.632 0 0 1 10.132 7.5h24.736a2.632 2.632 0 0 1 2.632 2.632v24.736a2.632 2.632 0 0 1-2.632 2.632"
          fill="#EC5424"
        />
        <path
          d="M42.368 30H17.632A2.632 2.632 0 0 1 15 27.368V2.632A2.632 2.632 0 0 1 17.632 0h24.736A2.632 2.632 0 0 1 45 2.632v24.736A2.632 2.632 0 0 1 42.368 30"
          fill="#44C7F4"
        />
      </g>
    </svg>